# xmcd
# 
# Track frame offsets:
#     150
#     23507
#     43335
#     71555
#     133675
#     152000
#     174872
#     204415
#     237180
# 
# Disc length: 3452
# 
# Revision: 3
# Processed by: cddbd v1.5.2PL0 Copyright (c) Steve Scherf et al.
# Submitted via: BonkEnc v1.0.15
# 
DISCID=6f0d7a09
DTITLE=Rose Royce - Carwash
DYEAR=0
DGENRE=Pop
TTITLE0=Is It Love You're After
TTITLE1=I Love The Feeling
TTITLE2=Wishing On A Star
TTITLE3=The Magic Touch
TTITLE4=Band Introduction
TTITLE5=Do Your Dance
TTITLE6=I Wanna Get Next To You
TTITLE7=Love Don't Live Here Anymore
TTITLE8=Car Wash
EXTD=
EXTT0=
EXTT1=
EXTT2=
EXTT3=
EXTT4=
EXTT5=
EXTT6=
EXTT7=
EXTT8=
PLAYORDER=
